<?xml version="1.0" encoding="utf-8"?>
<!-- Generator: Adobe Illustrator 19.2.0, SVG Export Plug-In . SVG Version: 6.00 Build 0)  -->
<svg version="1.1" id="Layer_1" xmlns="http://www.w3.org/2000/svg" xmlns:xlink="http://www.w3.org/1999/xlink" x="0px" y="0px"
	 viewBox="0 0 1444.2 2073" style="enable-background:new 0 0 1444.2 2073;" xml:space="preserve">
<style type="text/css">
	.st0{fill:#52B9E9;stroke:#000000;stroke-width:37;stroke-miterlimit:10;}
	.st1{display:none;}
</style>
<path class="st0" d="M723.5,1839.6c-38.8-190.3-107.1-348.7-189.9-495.4c-61.4-108.9-132.5-209.4-198.4-314.9
	c-22-35.2-40.9-72.5-62-109.1c-42.2-73.1-76.4-157.9-74.3-267.9c2.1-107.5,33.2-193.7,78-264.2c73.7-115.9,197.2-211,362.9-236
	c135.5-20.4,262.5,14.1,352.5,66.7c73.6,43,130.6,100.5,173.9,168.3c45.2,70.7,76.4,154.3,79,263.2c1.3,55.8-7.8,107.5-20.7,150.4
	c-13,43.4-34,79.7-52.6,118.5c-36.4,75.7-82,145-127.9,214.3C907.6,1340.2,779.6,1550.9,723.5,1839.6z"/>
<g>
	<path d="M803.9,1162.6c-23.4-10.3-32.9-28-33.2-53.8c-0.5-40.1-5.1-80.2-5.5-120.4c-0.3-26-9-46.7-25.5-66.1
		c-19-22.3-35.8-46.3-56.9-74c-5.4,22.9-11.1,40.2-13.3,58c-4.1,32.5-18.8,58.7-39.4,83.6c-36.7,44.4-71.2,90.6-107.2,135.7
		c-18.7,23.5-40.8,27.6-61.4,12.6c-21.7-15.7-24.1-39.6-5.1-63.9c34.9-44.7,71.4-88.3,105.2-133.9c11.9-16.1,21.7-35.8,26-55.3
		c22.7-103.9,43.1-208.4,64.7-312.5c3.2-15.3,7.7-30.5,13.4-45c9.1-23.1,23.5-40.4,51-42.6c28.6-2.3,51.2,7.1,67.8,30.8
		c24.5,35,51.2,68.7,73.4,105.2c20.3,33.3,54.3,40,87.8,57.6c0-34.1,0-63.5,0-95.8c10.7-0.5,19.6-0.9,31.8-1.5c0,32.4-1,62.8,0.6,93
		c0.5,9.5,6.3,20.4,13,27.4c15.4,16.1,15.3,33.9,0.1,50.4c-7.1,7.7-13.6,19.5-13.7,29.5c-0.9,113.5-0.6,227.1-0.6,340.7
		c0,7.7,0,15.4,0,24.7c-11.1,0-20.1,0-31.5,0c0-15,0-28.8,0-42.6c0-110.9-0.4-221.9,0.4-332.8c0.1-16.2-4.5-24.7-19.4-31.7
		c-48.2-22.4-102.5-36.8-131-90.7c-10.9,50.8-22.1,101.5-32.3,152.5c-1.2,5.8,1.8,13.6,5.2,19c6.9,11.1,14.3,22.3,23.5,31.4
		c46,45.3,61.6,100.7,59,163.7c-1.1,27.8,0.9,56,4.3,83.7c3.4,28.5-5.4,49.2-30.2,63.4C817.9,1162.6,810.9,1162.6,803.9,1162.6z"/>
	<path d="M792.9,294.9c35.6,6.1,63.8,26.6,73.8,64.6c12.4,46.9-13.5,92.9-60,107c-44.3,13.5-91.8-10.7-107.6-54.8
		c-16-44.7,6.8-93.9,51.6-111.4c7.2-2.8,13.6-4,21.2-5.3C776.5,294.1,786,293.7,792.9,294.9z"/>
	<path d="M579.9,450.7c70.6,3.4,76.9,12.5,54.6,78.7c-23.7,70.1-47.3,140.2-71.1,210.3c-11.8,34.8-25.6,41.4-58.8,28.1
		c-17-6.8-33.8-13.9-50.8-20.8c-21.7-8.8-29-25.4-21.5-46.5c26.7-75.5,53.8-150.9,82.5-225.7c3.5-9.2,16.2-17.4,26.3-20.9
		C553,449.8,566.9,451.5,579.9,450.7z"/>
</g>
<path class="st1" d="M368.2,1016.3c0-8.8,0-17.7,0-27.5c2.2,0,4.2,0,6.2,0c12.7,0,25.5,0.2,38.2-0.2c2.2-0.1,5.3-1.6,6.3-3.4
	c10.6-18.7,20.9-37.5,31.3-56.3c6.4-11.6,13-23,19.5-34.6c11.1-19.9,22.1-39.9,33.2-59.8c8.9-15.9,18.1-31.6,26.9-47.5
	c10.6-18.9,20.9-37.9,31.5-56.9c8.6-15.4,17.4-30.7,26-46.2c12.6-22.6,25.1-45.3,37.7-67.9c8.3-14.9,16.7-29.7,25.1-44.6
	c11.1-19.9,22.2-39.8,33.3-59.7c5.9-10.5,11.9-21,17.6-31.7c0.9-1.7,0.7-4.8-0.3-6.5c-10.1-17.2-20.4-34.2-31.7-52.9
	c5.8-4.8,11.8-9.9,18.2-15.2c9,16,18.1,32.1,27.5,48.9c9.8-16.1,19.2-31.8,29.1-48.2c5.4,5.7,10.7,11.3,16.1,17
	c-8.5,14.5-16.7,28.5-25,42.5c-2,3.5-4.3,6.8-6,10.5c-0.6,1.4-0.4,3.7,0.4,5.2c4.5,8.7,9.3,17.2,14,25.7
	c12.9,23.3,25.9,46.6,38.9,69.9c8.2,14.8,16.6,29.5,24.8,44.2c13.1,23.5,26.1,47,39.2,70.4c10.7,19.1,21.6,38,32.2,57.1
	c12.6,22.6,25,45.3,37.6,67.8c8.5,15.2,17.2,30.4,25.7,45.6c12.8,22.9,25.4,45.9,38.2,68.9c8.6,15.4,18.2,30.3,25.7,46.3
	c4.8,10.4,11.4,12.3,21.6,11.5c10.7-0.9,21.5-0.2,32.7-0.2c0,8.2,0,17,0,26.5c-2.9,0-5.8,0-8.6,0c-125.1,0.2-250.2,0.3-375.3,0.5
	c-25.3,0-50.5,0.1-75.8,0.2c-2.1,0-4.2,0.4-6.3,0.6C518.6,1016.3,443.4,1016.3,368.2,1016.3z M715.8,750.6
	c-45.1,78.7-89.8,156.7-134.6,234.8c88,0,175.4,0,264.2,0C801.9,906.5,759,828.9,715.8,750.6z"/>
</svg>
