<?xml version="1.0" encoding="utf-8"?>
<!-- Generator: Adobe Illustrator 19.2.0, SVG Export Plug-In . SVG Version: 6.00 Build 0)  -->
<svg version="1.1" id="Layer_1" xmlns="http://www.w3.org/2000/svg" xmlns:xlink="http://www.w3.org/1999/xlink" x="0px" y="0px"
	 viewBox="0 0 1444.2 2073" style="enable-background:new 0 0 1444.2 2073;" xml:space="preserve">
<style type="text/css">
	.st0{fill:#D1D1D1;stroke:#000000;stroke-width:37;stroke-miterlimit:10;}
	.st1{display:none;}
</style>
<path class="st0" d="M723.5,1839.6c-38.8-190.3-107.1-348.7-189.9-495.4c-61.4-108.9-132.5-209.4-198.4-314.9
	c-22-35.2-40.9-72.5-62-109.1c-42.2-73.1-76.4-157.9-74.3-267.9c2.1-107.5,33.2-193.7,78-264.2c73.7-115.9,197.2-211,362.9-236
	c135.5-20.4,262.5,14.1,352.5,66.7c73.6,43,130.6,100.5,173.9,168.3c45.2,70.7,76.4,154.3,79,263.2c1.3,55.8-7.8,107.5-20.7,150.4
	c-13,43.4-34,79.7-52.6,118.5c-36.4,75.7-82,145-127.9,214.3C907.6,1340.2,779.6,1550.9,723.5,1839.6z"/>
<path class="st1" d="M368.2,1016.3c0-8.8,0-17.7,0-27.5c2.2,0,4.2,0,6.2,0c12.7,0,25.5,0.2,38.2-0.2c2.2-0.1,5.3-1.6,6.3-3.4
	c10.6-18.7,20.9-37.5,31.3-56.3c6.4-11.6,13-23,19.5-34.6c11.1-19.9,22.1-39.9,33.2-59.8c8.9-15.9,18.1-31.6,26.9-47.5
	c10.6-18.9,20.9-37.9,31.5-56.9c8.6-15.4,17.4-30.7,26-46.2c12.6-22.6,25.1-45.3,37.7-67.9c8.3-14.9,16.7-29.7,25.1-44.6
	c11.1-19.9,22.2-39.8,33.3-59.7c5.9-10.5,11.9-21,17.6-31.7c0.9-1.7,0.7-4.8-0.3-6.5c-10.1-17.2-20.4-34.2-31.7-52.9
	c5.8-4.8,11.8-9.9,18.2-15.2c9,16,18.1,32.1,27.5,48.9c9.8-16.1,19.2-31.8,29.1-48.2c5.4,5.7,10.7,11.3,16.1,17
	c-8.5,14.5-16.7,28.5-25,42.5c-2,3.5-4.3,6.8-6,10.5c-0.6,1.4-0.4,3.7,0.4,5.2c4.5,8.7,9.3,17.2,14,25.7
	c12.9,23.3,25.9,46.6,38.9,69.9c8.2,14.8,16.6,29.5,24.8,44.2c13.1,23.5,26.1,47,39.2,70.4c10.7,19.1,21.6,38,32.2,57.1
	c12.6,22.6,25,45.3,37.6,67.8c8.5,15.2,17.2,30.4,25.7,45.6c12.8,22.9,25.4,45.9,38.2,68.9c8.6,15.4,18.2,30.3,25.7,46.3
	c4.8,10.4,11.4,12.3,21.6,11.5c10.7-0.9,21.5-0.2,32.7-0.2c0,8.2,0,17,0,26.5c-2.9,0-5.8,0-8.6,0c-125.1,0.2-250.2,0.3-375.3,0.5
	c-25.3,0-50.5,0.1-75.8,0.2c-2.1,0-4.2,0.4-6.3,0.6C518.6,1016.3,443.4,1016.3,368.2,1016.3z M715.8,750.6
	c-45.1,78.7-89.8,156.7-134.6,234.8c88,0,175.4,0,264.2,0C801.9,906.5,759,828.9,715.8,750.6z"/>
</svg>
