<?xml version="1.0" encoding="utf-8"?>
<!-- Generator: Adobe Illustrator 19.2.0, SVG Export Plug-In . SVG Version: 6.00 Build 0)  -->
<svg version="1.1" id="Layer_1" xmlns="http://www.w3.org/2000/svg" xmlns:xlink="http://www.w3.org/1999/xlink" x="0px" y="0px"
	 viewBox="0 0 28.3 47.5" style="enable-background:new 0 0 28.3 47.5;" xml:space="preserve">
<style type="text/css">
	.st0{fill:#FA3031;stroke:#000000;stroke-width:0.9314;stroke-miterlimit:10;}
</style>
<path class="st0" d="M14.2,43.6c-1-4.8-2.7-8.8-4.8-12.5c-1.5-2.7-3.3-5.3-5-7.9c-0.6-0.9-1-1.8-1.6-2.7c-1.1-1.8-1.9-4-1.9-6.7
	C1.1,11,1.8,8.9,3,7.1c1.9-2.9,5-5.3,9.1-5.9c3.4-0.5,6.6,0.4,8.9,1.7c1.9,1.1,3.3,2.5,4.4,4.2c1.1,1.8,1.9,3.9,2,6.6
	c0,1.4-0.2,2.7-0.5,3.8c-0.3,1.1-0.9,2-1.3,3c-0.9,1.9-2.1,3.7-3.2,5.4C18.8,31.1,15.6,36.4,14.2,43.6z"/>
<path d="M5.5,21.5c0-0.2,0-0.4,0-0.7c0.1,0,0.1,0,0.2,0c0.3,0,0.6,0,1,0c0.1,0,0.1,0,0.2-0.1c0.3-0.5,0.5-0.9,0.8-1.4
	C7.7,19,7.9,18.7,8,18.4c0.3-0.5,0.6-1,0.8-1.5c0.2-0.4,0.5-0.8,0.7-1.2c0.3-0.5,0.5-1,0.8-1.4c0.2-0.4,0.4-0.8,0.7-1.2
	c0.3-0.6,0.6-1.1,0.9-1.7c0.2-0.4,0.4-0.7,0.6-1.1c0.3-0.5,0.6-1,0.8-1.5c0.1-0.3,0.3-0.5,0.4-0.8c0,0,0-0.1,0-0.2
	C13.6,7.4,13.3,7,13,6.5c0.1-0.1,0.3-0.2,0.5-0.4c0.2,0.4,0.5,0.8,0.7,1.2c0.2-0.4,0.5-0.8,0.7-1.2c0.1,0.1,0.3,0.3,0.4,0.4
	c-0.2,0.4-0.4,0.7-0.6,1.1c-0.1,0.1-0.1,0.2-0.2,0.3c0,0,0,0.1,0,0.1c0.1,0.2,0.2,0.4,0.4,0.6c0.3,0.6,0.7,1.2,1,1.8
	c0.2,0.4,0.4,0.7,0.6,1.1c0.3,0.6,0.7,1.2,1,1.8c0.3,0.5,0.5,1,0.8,1.4c0.3,0.6,0.6,1.1,0.9,1.7c0.2,0.4,0.4,0.8,0.6,1.1
	c0.3,0.6,0.6,1.2,1,1.7c0.2,0.4,0.5,0.8,0.6,1.2c0.1,0.3,0.3,0.3,0.5,0.3c0.3,0,0.5,0,0.8,0c0,0.2,0,0.4,0,0.7c-0.1,0-0.1,0-0.2,0
	c-3.1,0-6.3,0-9.4,0c-0.6,0-1.3,0-1.9,0c-0.1,0-0.1,0-0.2,0C9.3,21.5,7.4,21.5,5.5,21.5z M14.2,14.8c-1.1,2-2.3,3.9-3.4,5.9
	c2.2,0,4.4,0,6.7,0C16.4,18.7,15.3,16.8,14.2,14.8z"/>
</svg>
